<svg width="29" height="29" viewBox="0 0 29 29" fill="currentColor" xmlns="http://www.w3.org/2000/svg">
<path d="M3.39243 24.4388L4.38536 25.4317C4.75837 25.804 4.96791 26.3097 4.96791 26.8365C4.96791 27.3636 4.75872 27.8692 4.38571 28.2416C4.01305 28.6143 3.5074 28.8234 2.98023 28.8228C2.45345 28.8234 1.94775 28.6143 1.5751 28.2419L0.582164 27.249C0.0799684 26.7468 -0.116056 26.0153 0.0678485 25.3296C0.251407 24.6439 0.787196 24.1081 1.47298 23.9245C2.15873 23.7406 2.89052 23.9366 3.39235 24.4388L3.39243 24.4388Z" fill="currentColor"/>
<path d="M0.582469 12.5226C0.955128 12.1499 1.46044 11.94 1.9876 11.94C2.51476 11.94 3.02008 12.1499 3.39273 12.5226L16.302 25.4319C16.8039 25.9337 16.9999 26.6655 16.8164 27.3512C16.6324 28.037 16.097 28.5727 15.4112 28.7564C14.7255 28.9403 13.9937 28.7442 13.4918 28.2421L0.582541 15.3327C0.209537 14.9604 0 14.4548 0 13.9276C0 13.4005 0.209537 12.8951 0.582541 12.5225L0.582469 12.5226Z" fill="currentColor"/>
<path d="M0.58247 0.606271C0.955128 0.233267 1.46044 0.0237315 1.9876 0.0237315C2.51476 0.0237315 3.02008 0.233267 3.39273 0.606271L28.2183 25.4319C28.7205 25.9337 28.9165 26.6655 28.7326 27.3512C28.5491 28.037 28.0133 28.5727 27.3275 28.7564C26.6418 28.9403 25.91 28.7442 25.4081 28.2421L0.582541 3.41646C0.209537 3.0438 0 2.53849 0 2.01133C0 1.48417 0.209537 0.978851 0.582541 0.606201L0.58247 0.606271Z" fill="currentColor"/>
<path d="M25.4071 4.41002L24.4142 3.41709C23.912 2.91524 23.716 2.18343 23.8999 1.49772C24.0834 0.811962 24.6192 0.276208 25.305 0.0925873C25.9908 -0.0913172 26.7222 0.104708 27.2244 0.606901L28.2173 1.59984C28.7195 2.10203 28.9155 2.83349 28.7316 3.51921C28.5481 4.20497 28.0123 4.74072 27.3265 4.92434C26.6407 5.10824 25.909 4.91222 25.4071 4.41002Z" fill="currentColor"/>
<path d="M13.9056 0.0254352C14.4327 0.0247425 14.938 0.233933 15.3107 0.606246L28.22 13.5156C28.7222 14.0174 28.9182 14.7492 28.7343 15.4349C28.5508 16.1207 28.015 16.6561 27.3292 16.8401C26.6434 17.0236 25.9117 16.8276 25.4098 16.3257L12.5005 3.41643C12.1278 3.04412 11.9183 2.53847 11.918 2.01166C11.918 1.48453 12.1275 0.978914 12.5002 0.60653C12.8732 0.233871 13.3788 0.0246814 13.9056 0.025373L13.9056 0.0254352Z" fill="currentColor"/>
</svg>
