<svg width="31" height="32" viewBox="0 0 31 32" fill="currentColor" xmlns="http://www.w3.org/2000/svg">
<path d="M9.6651 16.2125L13.7557 15.061C14.4526 14.8793 14.4526 13.8793 13.7557 13.6671L9.6651 12.5159C9.42267 12.4552 9.24091 12.2734 9.18025 12.031L7.99854 7.94061C7.81677 7.24376 6.81683 7.24376 6.60462 7.94061L5.45316 12.0312C5.3925 12.2737 5.21073 12.4554 4.96831 12.5161L0.878106 13.6673C0.181256 13.8491 0.181256 14.849 0.878106 15.0613L4.96874 16.2127C5.21117 16.2734 5.39293 16.4551 5.45359 16.6976L6.63508 20.8182C6.81685 21.515 7.81679 21.515 8.029 20.8182L9.18046 16.7275C9.24091 16.4851 9.42267 16.2732 9.6651 16.2125Z" fill="currentColor"/>
<path d="M26.3978 23.4849L22.3072 22.3335C22.0647 22.2728 21.883 22.091 21.8223 21.8486L20.6708 17.758C20.4891 17.0611 19.4891 17.0611 19.2769 17.758L18.1255 21.8486C18.0648 22.0911 17.883 22.2728 17.6406 22.3335L13.55 23.4849C12.8531 23.6667 12.8531 24.6666 13.55 24.8789L17.6406 26.0303C17.883 26.091 18.0648 26.2727 18.1255 26.5152L19.2769 30.6058C19.4587 31.3027 20.4586 31.3027 20.6708 30.6058L21.8223 26.5152C21.883 26.2727 22.0647 26.091 22.3072 26.0303L26.3978 24.8484C27.0949 24.6666 27.0949 23.6667 26.3978 23.4849Z" fill="currentColor"/>
<path d="M29.8849 6.30321L25.7942 5.15175C25.5518 5.09109 25.37 4.90932 25.3094 4.6669L24.1279 0.546075C23.9461 -0.150775 22.9462 -0.150775 22.734 0.546075L21.5825 4.63671C21.5218 4.87914 21.3401 5.0609 21.0976 5.12156L17.007 6.27302C16.3102 6.45479 16.3102 7.45473 17.007 7.66694L21.0978 8.81797C21.3402 8.87863 21.522 9.0604 21.5827 9.30282L22.7341 13.3935C22.9159 14.0903 23.9158 14.0903 24.128 13.3935L25.2795 9.30282C25.3402 9.06039 25.5219 8.87863 25.7644 8.81797L29.8847 7.66672C30.5816 7.48495 30.5816 6.48502 29.8847 6.30327L29.8849 6.30321Z" fill="currentColor"/>
</svg>
