<svg width="27" height="27" viewBox="0 0 27 27" fill="currentColor" xmlns="http://www.w3.org/2000/svg">
<path d="M13.2483 0.328125C9.7346 0.328125 6.36492 1.72392 3.8804 4.20853C1.39579 6.69295 0 10.0628 0 13.5764C0 17.0901 1.39579 20.4598 3.8804 22.9443C6.36482 25.429 9.7347 26.8247 13.2483 26.8247C16.7619 26.8247 20.1317 25.429 22.6162 22.9443C25.1008 20.4599 26.4966 17.0901 26.4966 13.5764C26.4966 11.251 25.8845 8.96634 24.7217 6.95233C23.5588 4.93831 21.8865 3.26601 19.8724 2.10301C17.8584 0.940287 15.5738 0.328125 13.2483 0.328125ZM13.2483 21.0285C10.9482 21.0558 8.69348 20.3862 6.78129 19.1078C4.86872 17.8295 3.38809 16.0021 2.53401 13.8662C2.46766 13.6786 2.46766 13.4742 2.53401 13.2866C3.38809 11.1505 4.86872 9.32319 6.78129 8.04502C8.69367 6.76657 10.9483 6.09697 13.2483 6.12431C15.5484 6.09696 17.8031 6.76657 19.7153 8.04502C21.6279 9.32328 23.1085 11.1506 23.9626 13.2866C24.029 13.4742 24.029 13.6786 23.9626 13.8662C23.1085 16.0022 21.6279 17.8296 19.7153 19.1078C17.803 20.3862 15.5483 21.0558 13.2483 21.0285Z" fill="currentColor"/>
<path d="M16.5616 13.5762C16.5616 15.4054 15.0788 16.8883 13.2496 16.8883C11.4204 16.8883 9.9375 15.4054 9.9375 13.5762C9.9375 11.747 11.4204 10.2642 13.2496 10.2642C15.0788 10.2642 16.5616 11.747 16.5616 13.5762Z" fill="currentColor"/>
</svg>
