<svg width="27" height="28" viewBox="0 0 27 28" fill="currentColor" xmlns="http://www.w3.org/2000/svg">
<path d="M25.8936 16.6726C25.7103 16.3596 25.5601 16.0971 25.4378 15.8807C25.3627 15.7518 25.3015 15.6367 25.2404 15.5308C25.3109 15.0244 25.3438 14.5179 25.3438 13.9929C25.3438 13.4679 25.3109 12.9615 25.2404 12.4598C25.3109 12.3401 25.386 12.2065 25.4754 12.0499C25.5928 11.8427 25.7243 11.5987 25.8936 11.3132C26.0675 11.014 26.2179 10.77 26.3446 10.5673C27.1292 9.29666 27.1292 9.11702 26.3446 7.84632C26.2177 7.63913 26.0673 7.39515 25.8936 7.10039C25.7197 6.80563 25.5836 6.55715 25.4661 6.34993C24.7238 5.02851 24.564 4.93642 23.023 4.96868C22.7835 4.96868 22.4967 4.97793 22.1632 4.97793C21.7592 4.97793 21.435 4.97793 21.1671 4.96868H20.8242C19.9925 4.33788 19.0812 3.81763 18.1132 3.43078C18.0427 3.30642 17.9582 3.1683 17.8594 3.00715C17.7373 2.80921 17.5964 2.57427 17.4319 2.30274C17.2629 2.01271 17.1265 1.76876 17.0091 1.56154C16.2668 0.240116 16.1023 0.148032 14.5848 0.180288C14.3405 0.18481 14.0491 0.189537 13.6967 0.189537C13.3444 0.189537 13.0579 0.185015 12.8087 0.180288C11.2911 0.148017 11.1267 0.23558 10.3844 1.56154C10.267 1.76873 10.1306 2.01271 9.96157 2.30274C9.79713 2.57899 9.65618 2.8092 9.53411 3.00715C9.43553 3.1683 9.35078 3.30642 9.28031 3.43078C8.29365 3.82665 7.37744 4.34235 6.55526 4.96868H6.23098C5.96313 4.96868 5.63427 4.97793 5.23026 4.97793C4.89193 4.97793 4.6054 4.97341 4.36565 4.96868C2.82464 4.94113 2.66479 5.02849 1.93195 6.33615C1.81449 6.54785 1.67354 6.80108 1.49505 7.10507C1.32117 7.40434 1.17077 7.64831 1.04409 7.851C0.259437 9.12165 0.259437 9.30129 1.04409 10.572C1.17099 10.7792 1.32138 11.0232 1.49505 11.3224C1.6641 11.6079 1.80044 11.8519 1.91329 12.0591C2.00264 12.2157 2.07773 12.3539 2.14821 12.469C2.08234 12.9709 2.0448 13.4864 2.0448 14.0021C2.0448 14.5179 2.07773 15.0336 2.14821 15.54C2.08717 15.6414 2.02614 15.7565 1.95083 15.8899C1.82876 16.1108 1.68298 16.3688 1.49505 16.6864C1.32117 16.9764 1.1756 17.2204 1.0487 17.423C0.254599 18.7122 0.254599 18.8919 1.0487 20.1763C1.1756 20.379 1.32117 20.6229 1.49505 20.913C1.66893 21.2077 1.80988 21.4609 1.92734 21.6681C2.66018 22.9758 2.82003 23.0632 4.34241 23.0309C4.59138 23.0264 4.88269 23.0216 5.2351 23.0216C5.54993 23.0216 5.81297 23.0262 6.04327 23.0309C6.24526 23.0309 6.41914 23.0354 6.56953 23.0354C7.41985 23.68 8.33139 24.1957 9.28996 24.5686C9.36988 24.7067 9.46385 24.8586 9.57187 25.0335C9.68932 25.2222 9.82084 25.4386 9.97123 25.6966C10.1403 25.9866 10.2766 26.2306 10.3941 26.4378C11.1364 27.7592 11.3008 27.8513 12.8183 27.8191C13.0627 27.8145 13.354 27.8098 13.7064 27.8098C14.0588 27.8098 14.3453 27.8143 14.5945 27.8191C14.7354 27.8191 14.8669 27.8236 14.9844 27.8236C16.1544 27.8236 16.3469 27.6394 17.0188 26.4378C17.1362 26.2306 17.2726 25.9866 17.4416 25.6966C17.592 25.4389 17.7281 25.2224 17.841 25.0335C17.949 24.8586 18.043 24.702 18.1229 24.5686C19.0672 24.2002 19.9741 23.6845 20.829 23.0354C20.984 23.0354 21.1625 23.0354 21.3693 23.0309C21.5996 23.0309 21.8626 23.0216 22.1727 23.0216C22.5204 23.0216 22.8115 23.0261 23.0607 23.0309C24.5831 23.0631 24.7475 22.9711 25.485 21.6496C25.6024 21.4424 25.7388 21.1985 25.9078 20.9084C26.0817 20.6184 26.2273 20.3744 26.3542 20.1718C27.1483 18.8826 27.1483 18.7029 26.3542 17.4185C26.2273 17.2158 26.0817 16.9719 25.9078 16.6773L25.8936 16.6726ZM13.6875 20.1443C10.2248 20.1443 7.4105 17.3863 7.4105 13.9931C7.4105 10.5998 10.2249 7.84192 13.6875 7.84192C17.1502 7.84192 19.9645 10.5999 19.9645 13.9931C19.9645 17.3864 17.1501 20.1443 13.6875 20.1443Z" fill="currentColor"/>
</svg>
