<svg width="35" height="30" viewBox="0 0 35 30" fill="none" xmlns="http://www.w3.org/2000/svg">
<path d="M0.5 14.5C0.223858 14.5 0 14.7239 0 15C0 15.2761 0.223858 15.5 0.5 15.5L0.5 14.5ZM0.5 15.5L32.9848 15.5V14.5L0.5 14.5L0.5 15.5Z" fill="white"/>
<path d="M21.1691 0.44786C20.9812 0.245505 20.6649 0.233788 20.4625 0.421689C20.2602 0.609591 20.2484 0.925956 20.4363 1.12831L21.1691 0.44786ZM33.9997 15.0002L34.3661 15.3404L34.682 15.0002L34.3661 14.66L33.9997 15.0002ZM20.4363 1.12831L33.6333 15.3404L34.3661 14.66L21.1691 0.44786L20.4363 1.12831ZM33.6333 14.66L20.4363 28.8721L21.1691 29.5526L34.3661 15.3404L33.6333 14.66Z" fill="white"/>
</svg>
