<svg width="22" height="15" viewBox="0 0 22 15" fill="none" xmlns="http://www.w3.org/2000/svg">
<path d="M22 2.42957V12.591L14.8086 7.56651L22 2.42957ZM21.9406 1.1842C21.7661 0.503868 21.1896 0 20.5 0H1.49986C0.810124 0 0.233741 0.504051 0.059314 1.18439L10.9998 8.99932L21.9406 1.1842ZM11.2774 10.0888C11.1933 10.1487 11.0967 10.1787 11 10.1787C10.9032 10.1787 10.8066 10.1485 10.7226 10.0886L8.0929 8.21025L0.0623826 13.8257C0.24017 14.5008 0.813878 15 1.5001 15H20.4998C21.1861 15 21.7599 14.501 21.9376 13.8257L13.9036 8.21255L11.2774 10.0888ZM0 2.42952V12.5895L7.18753 7.56371L0 2.42952Z" fill="white"/>
</svg>
