<svg width="15" height="17" viewBox="0 0 15 17" fill="none" xmlns="http://www.w3.org/2000/svg">
<path d="M3.39591 6.00195H0.298218V16.0026H3.39591V6.00195Z" fill="white"/>
<path d="M1.83188 4.68935C2.8461 4.68935 3.66376 3.86383 3.66376 2.84175C3.66376 1.81967 2.8461 0.994141 1.83188 0.994141C0.817664 0.994141 0 1.81967 0 2.84175C0 3.86383 0.817664 4.68935 1.83188 4.68935Z" fill="white"/>
<path d="M8.34836 10.7518C8.34836 9.34457 8.99306 8.51125 10.2353 8.51125C11.3753 8.51125 11.9178 9.31312 11.9178 10.7518C11.9178 12.1904 11.9178 16.0033 11.9178 16.0033H14.9997C14.9997 16.0033 14.9997 12.3477 14.9997 9.66689C14.9997 6.98611 13.4823 5.68896 11.3596 5.68896C9.23678 5.68896 8.34836 7.33988 8.34836 7.33988V5.99556H5.37646V15.9954H8.34836C8.34836 16.0033 8.34836 12.2926 8.34836 10.7518Z" fill="white"/>
</svg>
