<svg width="18" height="15" viewBox="0 0 18 15" fill="none" xmlns="http://www.w3.org/2000/svg">
<path d="M0 13.2979C1.63233 14.372 3.57516 15 5.65993 15C12.5086 15 16.3854 9.06553 16.1548 3.7318C16.8733 3.19478 17.5032 2.53034 18 1.77488C17.3346 2.07524 16.6249 2.27549 15.8797 2.36651C16.6427 1.90231 17.2282 1.15595 17.5032 0.273058C16.7935 0.709952 16.0039 1.01942 15.1612 1.19235C14.4869 0.455097 13.5288 0 12.4643 0C10.0779 0 8.33021 2.28459 8.87136 4.65109C5.80187 4.49636 3.08723 2.98544 1.25973 0.691748C0.292755 2.39381 0.754066 4.62379 2.40414 5.75243C1.80089 5.73422 1.23312 5.56129 0.727452 5.27913C0.691966 7.0358 1.91621 8.67415 3.69049 9.03823C3.16708 9.18386 2.59931 9.22027 2.02267 9.10194C2.49285 10.6038 3.85904 11.7051 5.47363 11.7324C3.91227 12.9794 1.96057 13.5346 0 13.2979Z" fill="white"/>
</svg>
