<svg width="13" height="14" viewBox="0 0 13 14" fill="none" xmlns="http://www.w3.org/2000/svg">
<path d="M11.3261 2.58586H9.86747V0.464646C9.86747 0.20202 9.6619 0 9.41717 0C9.17244 0 8.96687 0.212121 8.96687 0.464646V2.58586H3.59262V0.464646C3.59262 0.20202 3.38705 0 3.14232 0C2.89759 0 2.68223 0.20202 2.68223 0.464646V2.58586H1.67395C0.753765 2.58586 0 3.36364 0 4.31313V12.2727C0 13.2222 0.753765 14 1.67395 14H11.3261C12.2462 14 13 13.2222 13 12.2727V4.31313C13 3.36364 12.2462 2.58586 11.3261 2.58586ZM1.67395 3.49495H11.3261C11.7666 3.49495 12.119 3.85859 12.119 4.31313V6H0.881024V4.31313C0.881024 3.86869 1.23343 3.49495 1.67395 3.49495ZM11.3261 13.0909H1.67395C1.23343 13.0909 0.881024 12.7273 0.881024 12.2727V7.0101H12.119V12.2727C12.119 12.7273 11.7666 13.0909 11.3261 13.0909Z" fill="currentColor"/>
</svg>
