<svg width="16" height="14" viewBox="0 0 16 14" fill="currentColor" xmlns="http://www.w3.org/2000/svg">
<path d="M8.34634 4.08829C9.38122 4.08829 10.2266 3.17062 10.2266 2.04135C10.2266 0.912086 9.38393 0 8.34634 0C7.30875 0 6.46094 0.914863 6.46094 2.04135C6.46094 3.16784 7.30619 4.08829 8.34634 4.08829Z" fill="currentColor"/>
<path d="M13.6577 5.39927C14.5707 5.39927 15.3154 4.59081 15.3154 3.59953C15.3154 2.60826 14.5707 1.7998 13.6577 1.7998C12.7447 1.7998 12 2.60826 12 3.59953C12 4.59081 12.7447 5.39927 13.6577 5.39927Z" fill="currentColor"/>
<path d="M3.00631 5.39927C3.9187 5.39927 4.65915 4.59081 4.65915 3.59953C4.65915 2.60826 3.9155 1.7998 3.00631 1.7998C2.09712 1.7998 1.34375 2.60826 1.34375 3.59953C1.34375 4.59081 2.09059 5.39927 3.00631 5.39927Z" fill="currentColor"/>
<path d="M3.56264 12.8652C3.55735 12.8452 3.54947 12.8251 3.54418 12.8023C3.53101 12.7366 3.52314 12.6679 3.52314 12.5994V8.08516C3.52314 7.98509 3.52843 7.88784 3.53889 7.79071C3.54677 7.71643 3.55735 7.64496 3.57051 7.57629C3.5731 7.55625 3.5758 7.53341 3.58109 7.51337C3.58638 7.49052 3.58639 7.46474 3.59168 7.44189H2.54093C1.66935 7.44189 0.960938 8.20806 0.960938 9.1487V12.7395C0.960938 12.8853 1.07156 13.0054 1.20581 13.0054L3.60473 13.0055C3.60473 13.0055 3.60473 12.997 3.60214 12.994C3.58639 12.954 3.57581 12.9111 3.56264 12.8682L3.56264 12.8652Z" fill="currentColor"/>
<path d="M14.1577 7.43901H13.1043C13.1043 7.43901 13.1069 7.46186 13.1096 7.47615C13.1228 7.54482 13.1334 7.61336 13.1438 7.68202C13.1491 7.71636 13.1544 7.74775 13.157 7.78209C13.1676 7.88215 13.1728 7.98502 13.1728 8.08802V12.6022C13.1728 12.6709 13.1649 12.7394 13.1517 12.8051C13.1464 12.828 13.1385 12.848 13.1333 12.8681C13.1227 12.911 13.1122 12.951 13.0963 12.991C13.0963 12.9938 13.0963 12.9995 13.0938 13.0025H15.4848C15.6243 13.0025 15.7297 12.8881 15.7297 12.7366V9.14577C15.7297 8.20513 15.024 7.43896 14.1575 7.43896L14.1577 7.43901Z" fill="currentColor"/>
<path d="M12.6235 7.7882C12.6182 7.74251 12.6129 7.69668 12.605 7.6538C12.5997 7.61666 12.5893 7.58233 12.5813 7.54519C12.5734 7.51085 12.5655 7.47652 12.5575 7.44512C12.5496 7.41373 12.5391 7.38514 12.5286 7.35361C12.2495 6.48443 11.4884 5.8584 10.5931 5.8584H6.09028C4.96324 5.8584 4.04688 6.85622 4.04688 8.08557V12.5998C4.04688 12.8227 4.21275 13.0028 4.41813 13.0028H12.2709C12.4762 13.0028 12.6421 12.8227 12.6421 12.5998V8.08557C12.6421 8.01129 12.6395 7.93981 12.6315 7.8654C12.6315 7.83962 12.6237 7.81397 12.6209 7.78818L12.6235 7.7882Z" fill="currentColor"/>
</svg>
