<svg width="15" height="17" viewBox="0 0 15 17" fill="none" xmlns="http://www.w3.org/2000/svg">
<path d="M12.8696 0.873535H2.12999C0.95289 0.873535 0 1.82643 0 3.00352V14.2813C0 15.4584 0.95289 16.4112 2.12999 16.4112H12.8696C14.0467 16.4112 14.9996 15.4584 14.9996 14.2813V3.00352C14.9996 1.82643 14.0467 0.873535 12.8696 0.873535ZM13.8786 14.2813C13.8786 14.8418 13.4301 15.2902 12.8696 15.2902H2.12999C1.56947 15.2902 1.12105 14.8418 1.12105 14.2813V3.00352C1.12105 2.443 1.56947 1.99458 2.12999 1.99458H12.8696C13.4301 1.99458 13.8786 2.443 13.8786 3.00352V14.2813Z" fill="currentColor"/>
<path d="M9.977 12.4986H8.07122V6.81492C8.07122 6.50102 7.82459 6.25439 7.51069 6.25439H5.70581C5.39191 6.25439 5.14528 6.50102 5.14528 6.81492C5.14528 7.12881 5.39191 7.37544 5.70581 7.37544H6.95017V12.4874H5.03318C4.71929 12.4874 4.47266 12.734 4.47266 13.0479C4.47266 13.3618 4.71929 13.6085 5.03318 13.6085H9.977C10.2909 13.6085 10.5375 13.3618 10.5375 13.0479C10.5375 12.734 10.2797 12.4986 9.977 12.4986Z" fill="currentColor"/>
<path d="M7.50172 5.45876C8.02798 5.45876 8.45461 5.03213 8.45461 4.50587C8.45461 3.9796 8.02798 3.55298 7.50172 3.55298C6.97545 3.55298 6.54883 3.9796 6.54883 4.50587C6.54883 5.03213 6.97545 5.45876 7.50172 5.45876Z" fill="currentColor"/>
</svg>
