<svg xmlns="http://www.w3.org/2000/svg" width="16" height="21" viewBox="0 0 16 21" fill="none">
  <path d="M7.35739 19.7084C7.35739 19.437 7.24958 19.1767 7.05768 18.9848C6.86577 18.7929 6.6055 18.6851 6.33411 18.6851H2.04656V2.04656H6.33411C6.6055 2.04656 6.86577 1.93875 7.05768 1.74685C7.24958 1.55495 7.35739 1.29467 7.35739 1.02328C7.35739 0.75189 7.24958 0.491614 7.05768 0.299712C6.86577 0.107809 6.6055 8.08808e-09 6.33411 0H0V20.7317H6.33411C6.6055 20.7317 6.86577 20.6239 7.05768 20.432C7.24958 20.2401 7.35739 19.9798 7.35739 19.7084Z" fill="#062A30"/>
  <path d="M15.7715 11.0016C15.792 10.9744 15.8124 10.9505 15.8329 10.9232C15.8516 10.8934 15.8686 10.8627 15.8841 10.8311C15.8841 10.8038 15.9113 10.7799 15.925 10.7492C15.9385 10.7124 15.9499 10.6748 15.9591 10.6367C15.9591 10.6128 15.9591 10.5855 15.9796 10.5616C15.9924 10.4987 15.9992 10.4348 16 10.3706C15.9992 10.3064 15.9924 10.2425 15.9796 10.1796C15.9796 10.1523 15.9796 10.1284 15.9591 10.1046C15.9499 10.0664 15.9385 10.0288 15.925 9.99201C15.925 9.96472 15.8977 9.93743 15.8841 9.91014C15.8686 9.87857 15.8516 9.84783 15.8329 9.81805C15.8158 9.79076 15.792 9.76689 15.7715 9.7396C15.751 9.71231 15.7408 9.69526 15.7237 9.6782L11.3748 4.97793C11.2834 4.87939 11.1735 4.79981 11.0514 4.74373C10.9293 4.68766 10.7973 4.65619 10.663 4.65112C10.5287 4.64605 10.3947 4.66748 10.2687 4.7142C10.1427 4.76091 10.0271 4.83198 9.92857 4.92336C9.83002 5.01473 9.75044 5.12463 9.69436 5.24676C9.63829 5.36889 9.60682 5.50088 9.60175 5.63517C9.59668 5.76947 9.61812 5.90345 9.66483 6.02946C9.71154 6.15547 9.78261 6.27105 9.87399 6.36959L12.63 9.34393H5.67172C5.53734 9.34393 5.40428 9.3704 5.28012 9.42182C5.15597 9.47325 5.04317 9.54862 4.94815 9.64364C4.85313 9.73866 4.77775 9.85147 4.72633 9.97562C4.6749 10.0998 4.64844 10.2328 4.64844 10.3672C4.64844 10.5016 4.6749 10.6347 4.72633 10.7588C4.77775 10.883 4.85313 10.9958 4.94815 11.0908C5.04317 11.1858 5.15597 11.2612 5.28012 11.3126C5.40428 11.364 5.53734 11.3905 5.67172 11.3905H12.63L9.87399 14.3648C9.68944 14.5638 9.59152 14.828 9.60175 15.0992C9.61199 15.3705 9.72955 15.6265 9.92857 15.8111C10.1276 15.9956 10.3918 16.0935 10.663 16.0833C10.9342 16.0731 11.1903 15.9555 11.3748 15.7565L15.7237 11.0494C15.7442 11.0494 15.7579 11.0221 15.7715 11.0016Z" fill="#062A30"/>
</svg>