<svg width="13" height="17" viewBox="0 0 13 17" fill="currentColor" xmlns="http://www.w3.org/2000/svg">
<path d="M4.81973 14.0615C4.78623 14.1954 4.76953 14.3125 4.76953 14.4632C4.76953 15.3168 5.47246 16.0197 6.32596 16.0197C7.17945 16.0197 7.88238 15.3167 7.88238 14.4632C7.88238 14.3293 7.86569 14.1954 7.83218 14.0615H4.81973Z" fill="currentColor"/>
<path d="M12.6526 12.3376C12.636 12.2036 12.5858 12.0866 12.502 11.986C12.4854 11.9693 11.1464 10.5132 11.1464 6.66385C11.1464 3.66804 9.13809 2.41281 7.48116 2.02787V1.15755C7.48116 0.53833 6.96236 0.0195312 6.34314 0.0195312C5.72381 0.0195312 5.1883 0.53833 5.1883 1.15755V2.04458C3.53137 2.42948 1.52303 3.66801 1.52303 6.68056C1.52303 10.5299 0.184089 11.986 0.167412 11.986C0.0670116 12.0864 0.0168111 12.2036 0 12.3375V13.3919H12.6527L12.6526 12.3376Z" fill="currentColor"/>
</svg>
