<svg width="16" height="20" viewBox="0 0 16 20" fill="none" xmlns="http://www.w3.org/2000/svg">
<path d="M7.62053 0C3.41699 0 0 3.41699 0 7.62053C0 9.52889 0.709186 11.347 1.98572 12.7525L7.11765 18.8644C7.2337 19.0062 7.41422 19.0965 7.60764 19.0965C7.80105 19.0965 7.98157 19.0062 8.09762 18.8644L13.3972 12.5719C13.4101 12.559 13.4101 12.5462 13.423 12.5333C14.5835 11.1536 15.2282 9.41284 15.2282 7.60764C15.2411 3.41699 11.8241 0 7.62053 0ZM12.4301 11.7467C12.4172 11.7596 12.4043 11.7725 12.3914 11.7854L7.62053 17.4589L3.00437 11.9659C2.99148 11.953 2.97858 11.9272 2.96569 11.9143C1.88257 10.741 1.28943 9.21942 1.28943 7.62053C1.28943 4.12617 4.12618 1.28943 7.62053 1.28943C11.1149 1.28943 13.9516 4.12617 13.9516 7.62053C13.9516 9.14206 13.4101 10.5991 12.4301 11.7467Z" fill="currentColor"/>
<path d="M7.61973 4.20361C5.71138 4.20361 4.16406 5.75093 4.16406 7.65929C4.16406 9.56764 5.71138 11.115 7.61973 11.115C9.52809 11.115 11.0754 9.56764 11.0754 7.65929C11.0754 5.75093 9.52809 4.20361 7.61973 4.20361ZM7.61973 9.82553C6.42056 9.82553 5.45349 8.85846 5.45349 7.65929C5.45349 6.46012 6.42056 5.49304 7.61973 5.49304C8.8189 5.49304 9.78597 6.46012 9.78597 7.65929C9.78597 8.85846 8.8189 9.82553 7.61973 9.82553Z" fill="currentColor"/>
</svg>
