<svg width="16" height="11" viewBox="0 0 16 11" fill="none" xmlns="http://www.w3.org/2000/svg">
<path d="M15.4798 3.60421C15.7711 3.60421 16 3.36172 16 3.05311V0.551102C16 0.242485 15.7711 0 15.4798 0H0.520156C0.228869 0 0 0.242485 0 0.551102V3.05311C0 3.36172 0.228869 3.60421 0.520156 3.60421C1.50845 3.60421 2.30949 4.45291 2.30949 5.5C2.30949 6.54709 1.50845 7.39579 0.520156 7.39579C0.228869 7.39579 0 7.63828 0 7.94689V10.4489C0 10.7575 0.228869 11 0.520156 11H15.4798C15.7711 11 16 10.7575 16 10.4489V7.94689C16 7.63828 15.7711 7.39579 15.4798 7.39579C14.4915 7.39579 13.6905 6.54709 13.6905 5.5C13.6905 4.45291 14.502 3.60421 15.4798 3.60421ZM1.04031 8.44289C2.35111 8.17836 3.3498 6.96593 3.3498 5.5C3.3498 4.03407 2.35111 2.82164 1.04031 2.55711V1.1022H7.47985V9.88677H1.04031V8.44289ZM14.9597 8.44289V9.8978H8.52016V1.1022H14.9597V2.55711C13.6489 2.82164 12.6502 4.03407 12.6502 5.5C12.6502 6.96593 13.6489 8.17836 14.9597 8.44289Z" fill="#062A30"/>
</svg>
