<svg width="16" height="17" viewBox="0 0 16 17" fill="none" xmlns="http://www.w3.org/2000/svg">
<path d="M15.8175 13.3699L15.2608 11.9225C14.5619 10.1431 12.8917 8.98046 10.9728 8.9686C12.1337 8.04327 12.8681 6.63154 12.8681 5.03001C12.8681 2.25401 10.6175 0 7.84568 0C5.0739 0 2.8233 2.25401 2.8233 5.03001C2.8233 6.63154 3.56956 8.05513 4.73039 8.9686C2.94176 9.08723 1.39003 10.2142 0.726695 11.9107L0.181818 13.3699C-0.138003 14.1884 -0.0313934 15.1137 0.466106 15.8374C0.963606 16.5611 1.78093 17 2.65747 17H13.3537C14.2303 17 15.0476 16.5729 15.5451 15.8374C16.0307 15.1137 16.1373 14.1884 15.8175 13.3699ZM3.92491 5.04187C3.92491 2.8709 5.68985 1.10328 7.85752 1.10328C10.0252 1.10328 11.7901 2.8709 11.7901 5.04187C11.7901 7.21284 10.0134 8.98046 7.85752 8.98046C5.70169 8.98046 3.92491 7.21284 3.92491 5.04187ZM14.633 15.2205C14.3369 15.6476 13.8631 15.8967 13.3419 15.8967H2.64562C2.12443 15.8967 1.65063 15.6476 1.3545 15.2205C1.05837 14.7934 0.999139 14.2596 1.18866 13.7732L1.74539 12.3259C2.27842 10.9616 3.56955 10.0719 5.03836 10.0719H10.9254C12.3942 10.0719 13.6854 10.9616 14.2184 12.3259L14.7751 13.7732C14.9884 14.2596 14.9291 14.7816 14.633 15.2205Z" fill="currentColor"/>
</svg>
